#define image_width  16
#define image_height 16
static unsigned char image_bits[] = {
 0x00,0x00,0x00,0x00,0x00,0x00,0x00,0x00,0xf0,0x0f,0x10,0x08,
 0x10,0x08,0x90,0x09,0x90,0x09,0x10,0x08,0x10,0x08,0xf0,0x0f,
 0x00,0x00,0x00,0x00,0x00,0x00,0x00,0x00};
